<svg width="50" height="25" viewBox="0 0 22 26" fill="none" xmlns="http://www.w3.org/2000/svg">
                                <path d="M10.2387 25.8468H2.99284C2.15274 25.8468 1.43516 25.5573 0.840095 24.9784C0.280032 24.4335 0 23.7695 0 22.9862V0.510805C0 0.374591 0.052506 0.255403 0.157518 0.153242C0.26253 0.0510806 0.385044 0 0.52506 0C0.70008 0 0.840095 0.0510806 0.945107 0.153242C1.05012 0.255403 1.10263 0.374591 1.10263 0.510805V22.9862C1.10263 23.463 1.27765 23.8887 1.62768 24.2633C2.01273 24.6038 2.46778 24.7741 2.99284 24.7741H10.2387C10.4137 24.7741 10.5537 24.8251 10.6587 24.9273C10.7637 25.0295 10.8162 25.1487 10.8162 25.2849C10.8162 25.4551 10.7637 25.5914 10.6587 25.6935C10.5537 25.7957 10.4137 25.8468 10.2387 25.8468ZM9.60859 16.1925H4.88305C4.428 16.1925 4.02546 16.0393 3.67542 15.7328C3.36038 15.3923 3.20286 15.0007 3.20286 14.558V8.27505C3.20286 8.13883 3.25537 8.01965 3.36038 7.91749C3.46539 7.81532 3.58791 7.76424 3.72792 7.76424C3.90294 7.76424 4.04296 7.81532 4.14797 7.91749C4.25298 8.01965 4.30549 8.13883 4.30549 8.27505V14.558C4.30549 14.6942 4.358 14.8304 4.46301 14.9666C4.56802 15.0688 4.70803 15.1198 4.88305 15.1198H9.60859C9.74861 15.1198 9.87112 15.1709 9.97613 15.2731C10.1161 15.3752 10.1862 15.5115 10.1862 15.6817C10.1862 15.8179 10.1161 15.9371 9.97613 16.0393C9.87112 16.1415 9.74861 16.1925 9.60859 16.1925ZM16.5919 9.90963C16.4869 10.0118 16.3469 10.0629 16.1718 10.0629C16.0318 10.0629 15.9093 10.0118 15.8043 9.90963C15.6993 9.77341 15.6468 9.6372 15.6468 9.50098V5.2613C15.6468 4.75049 15.4543 4.32482 15.0692 3.98428C14.7192 3.64375 14.2991 3.47348 13.8091 3.47348H4.88305C4.70803 3.47348 4.56802 3.52456 4.46301 3.62672C4.358 3.72888 4.30549 3.8651 4.30549 4.03536V4.95481C4.30549 5.09103 4.358 5.22724 4.46301 5.36346C4.56802 5.46562 4.70803 5.5167 4.88305 5.5167H11.9189C12.4089 5.5167 12.8115 5.68697 13.1265 6.0275C13.4765 6.33399 13.6516 6.70858 13.6516 7.15128V9.50098C13.6516 9.6372 13.5815 9.77341 13.4415 9.90963C13.3365 10.0118 13.214 10.0629 13.074 10.0629C12.934 10.0629 12.794 10.0118 12.6539 9.90963C12.5489 9.77341 12.4964 9.6372 12.4964 9.50098V7.15128C12.4964 7.01506 12.4439 6.89587 12.3389 6.79371C12.2339 6.6575 12.0939 6.58939 11.9189 6.58939H4.88305C4.428 6.58939 4.02546 6.43615 3.67542 6.12967C3.36038 5.78913 3.20286 5.39751 3.20286 4.95481V4.03536C3.20286 3.55861 3.36038 3.16699 3.67542 2.86051C4.02546 2.51997 4.428 2.34971 4.88305 2.34971H13.8091C14.6142 2.34971 15.2967 2.63916 15.8568 3.21807C16.4519 3.76293 16.7494 4.44401 16.7494 5.2613V9.50098C16.7494 9.6372 16.6969 9.77341 16.5919 9.90963ZM20.1098 26H14.4391C13.9141 26 13.459 25.8127 13.074 25.4381C12.7239 25.0976 12.5489 24.6719 12.5489 24.1611V19.4106C12.5489 18.6614 12.899 18.1166 13.599 17.776L12.4964 15.2731C12.2864 14.7963 12.2864 14.3026 12.4964 13.7917C12.7064 13.2809 13.074 12.9234 13.599 12.7191L15.9093 11.7996C16.4344 11.5953 16.9419 11.5953 17.432 11.7996C17.957 12.0039 18.3246 12.3615 18.5346 12.8723L19.0597 14.0982C19.1647 14.3366 19.0947 14.5239 18.8496 14.6601C18.6046 14.7623 18.4121 14.6771 18.2721 14.4047L17.747 13.1788C17.642 12.8723 17.432 12.668 17.1169 12.5658C16.8369 12.4296 16.5394 12.4296 16.2243 12.5658L13.9141 13.4853C13.634 13.6215 13.424 13.8428 13.284 14.1493C13.179 14.4217 13.179 14.6942 13.284 14.9666L14.5442 17.8271C14.5442 17.8612 14.5442 17.8952 14.5442 17.9293C14.5792 18.0314 14.5617 18.1336 14.4916 18.2358C14.4216 18.3379 14.3341 18.389 14.2291 18.389C13.6691 18.5252 13.389 18.8657 13.389 19.4106V24.1611C13.389 24.4676 13.494 24.706 13.7041 24.8762C13.9141 25.0806 14.1591 25.1827 14.4391 25.1827H20.1098C20.3898 25.1827 20.6348 25.0806 20.8449 24.8762C21.0549 24.706 21.1599 24.4676 21.1599 24.1611V19.4106C21.1599 19.1382 21.0549 18.8998 20.8449 18.6955C20.6348 18.4912 20.3898 18.389 20.1098 18.389H16.3294C16.0493 18.389 15.9093 18.2528 15.9093 17.9804C15.9093 17.7079 16.0493 17.5717 16.3294 17.5717H20.1098C20.6348 17.5717 21.0724 17.759 21.4224 18.1336C21.8075 18.4741 22 18.8998 22 19.4106V24.1611C22 24.6719 21.8075 25.0976 21.4224 25.4381C21.0724 25.8127 20.6348 26 20.1098 26Z" fill="#00A9E0"></path>
                            </svg>