<?xml version="1.0" encoding="UTF-8" standalone="no"?>
<!-- Created with Inkscape (http://www.inkscape.org/) -->

<svg
   xmlns:dc="http://purl.org/dc/elements/1.1/"
   xmlns:cc="http://creativecommons.org/ns#"
   xmlns:rdf="http://www.w3.org/1999/02/22-rdf-syntax-ns#"
   xmlns:svg="http://www.w3.org/2000/svg"
   xmlns="http://www.w3.org/2000/svg"
   xmlns:sodipodi="http://sodipodi.sourceforge.net/DTD/sodipodi-0.dtd"
   xmlns:inkscape="http://www.inkscape.org/namespaces/inkscape"
   width="210mm"
   height="297mm"
   viewBox="0 0 210 297"
   version="1.1"
   id="svg8"
   inkscape:version="0.92.5 (2060ec1f9f, 2020-04-08)"
   sodipodi:docname="logo.svg">
  <defs
     id="defs2" />
  <sodipodi:namedview
     id="base"
     pagecolor="#ffffff"
     bordercolor="#666666"
     borderopacity="1.0"
     inkscape:pageopacity="0.0"
     inkscape:pageshadow="2"
     inkscape:zoom="0.35"
     inkscape:cx="-55.715187"
     inkscape:cy="514.44655"
     inkscape:document-units="mm"
     inkscape:current-layer="layer1"
     showgrid="false"
     inkscape:window-width="1280"
     inkscape:window-height="747"
     inkscape:window-x="-8"
     inkscape:window-y="-8"
     inkscape:window-maximized="1" />
  <metadata
     id="metadata5">
    <rdf:RDF>
      <cc:Work
         rdf:about="">
        <dc:format>image/svg+xml</dc:format>
        <dc:type
           rdf:resource="http://purl.org/dc/dcmitype/StillImage" />
        <dc:title></dc:title>
      </cc:Work>
    </rdf:RDF>
  </metadata>
  <g
     inkscape:label="Layer 1"
     inkscape:groupmode="layer"
     id="layer1">
    <flowRoot
       xml:space="preserve"
       id="flowRoot815"
       style="fill:black;fill-opacity:1;stroke:none;font-family:'Exo 2';font-style:normal;font-weight:normal;font-size:40px;line-height:1.25;letter-spacing:0px;word-spacing:0px;-inkscape-font-specification:'Exo 2, ';font-stretch:normal;font-variant:normal;"><flowRegion
         id="flowRegion817"
         style="-inkscape-font-specification:'Exo 2, ';font-family:'Exo 2';font-weight:normal;font-style:normal;font-stretch:normal;font-variant:normal;"><rect
           id="rect819"
           width="551.42859"
           height="242.85715"
           x="74.285713"
           y="251.09111"
           style="-inkscape-font-specification:'Exo 2, ';font-family:'Exo 2';font-weight:normal;font-style:normal;font-stretch:normal;font-variant:normal;" /></flowRegion><flowPara
         id="flowPara821" /></flowRoot>    <path
       style="fill:#93c7ff;fill-opacity:1;stroke:none;stroke-width:0.1956879;stroke-opacity:1"
       id="path978-9-1"
       d="m 49.732613,64.552303 c 2.181762,-2.42369 5.154194,-3.83539 7.946761,-5.41668 3.883059,-2.19878 4.686281,-2.66876 8.785003,-5.02167 10.02963,-5.80997 19.90031,-11.88838 29.797239,-17.92006 6.626594,-4.0636 13.315844,-8.02222 20.084914,-11.84358 2.26627,-1.23722 4.5148,-2.51271 6.82113,-3.6753 0.78786,-0.39714 1.5532,-0.8505 2.38028,-1.15773 2.15345,-0.79991 4.30877,-1.63265 6.54519,-2.15769 1.17655,-0.27621 2.41227,-0.15225 3.61841,-0.22838 3.92976,0.5976 5.74241,0.45201 9.28394,3.27146 3.67232,2.92356 5.28095,6.21397 5.98318,10.76683 0.54998,3.56565 -0.43134,5.52374 -1.43336,8.77222 -0.4559,0.89628 -0.85674,1.82276 -1.36769,2.68883 -2.47628,4.1973 -5.92311,7.76661 -9.29195,11.24494 -3.62084,3.71033 -7.57744,7.06569 -11.54795,10.39073 -2.73701,2.26244 -5.50072,4.49219 -8.25114,6.73825 -2.01941,1.60341 -4.01906,3.23011 -5.99375,4.88822 -1.56585,1.38066 -3.14108,2.75377 -4.62594,4.22208 -0.0525,-0.44494 -0.57896,0.92867 -0.66401,0.63457 -0.0437,-0.15109 0.17996,-0.25883 0.25455,-0.3973 0.37529,-0.69676 1.06392,-1.31615 1.09431,-2.10697 0.14399,-3.74656 0.86223,-7.77277 -0.58164,-11.23293 -1.17301,-2.81108 -4.46603,-4.1433 -6.69905,-6.21494 -1.55784,0.66182 -3.332963,-1.46012 -5.025171,-1.15804 -1.08709,0.19405 -2.098252,0.6915 -3.161313,0.99036 -0.481196,0.13529 0.946543,-0.32223 1.414034,-0.49915 1.740934,-0.65884 2.196599,-0.89121 3.980621,-1.67808 5.628369,-2.57282 11.119069,-5.43258 16.621079,-8.26193 6.20315,-3.21608 12.4382,-6.37033 18.68058,-9.50948 5.85831,-2.85783 11.54236,-6.0495 17.21337,-9.25733 4.37445,-2.46495 8.72517,-4.97569 13.2401,-7.17668 2.15432,-0.63808 4.23889,-1.59522 6.46296,-1.91423 4.1174,-0.59057 9.00514,1.32163 11.85003,4.16934 1.94234,1.94427 3.08669,4.61793 3.99731,7.21094 1.05946,3.01689 0.14455,5.73487 -0.47023,8.61003 -1.70222,4.95548 -5.04523,9.04359 -8.35304,13.01385 -3.26698,3.8429 -6.63079,7.60256 -10.05012,11.31014 -2.92089,3.09874 -5.91856,6.12374 -8.87717,9.18627 -1.4145,1.47252 -2.80074,2.97346 -4.11431,4.53702 -0.12609,0.15113 -0.25257,0.30193 -0.37825,0.4534 -0.27959,0.33698 -0.50902,0.63102 -0.45263,0.50497 0.90978,-2.0335 0.039,0.37479 1.18619,-3.38011 -0.0303,-1.80335 0.30443,-3.6503 -0.0909,-5.41002 -0.91443,-4.07 -3.09915,-6.37219 -6.48123,-8.63003 -0.97404,-0.65025 -2.15714,-0.92285 -3.27469,-1.2731 -3.96884,-1.24386 -0.82792,0.11794 -2.18576,-0.48577 -1.08284,0.31079 -2.16915,0.60973 -3.24852,0.93235 -0.2516,0.0752 0.51381,-0.11189 0.76456,-0.18989 0.33749,-0.10497 0.67238,-0.22073 0.99794,-0.35833 1.55496,-0.65723 3.01431,-1.49847 4.46724,-2.35046 3.92009,-2.65551 7.51157,-5.76156 11.07985,-8.86422 1.37078,-1.20522 2.72914,-2.42442 4.0868,-3.64436 13.14546,-14.45781 33.59189,4.13267 20.44644,18.59048 v 0 c -1.47676,1.31997 -2.98066,2.6065 -4.48037,3.90038 -4.36715,3.74995 -8.77017,7.46424 -13.34261,10.96307 -0.92029,0.65398 -1.81947,1.33871 -2.76086,1.96192 -1.05586,0.69899 -3.41974,2.04094 -4.55374,2.65679 -0.96584,0.52453 -3.40541,1.83008 -4.50738,2.21031 -1.90176,0.65618 -3.84896,1.17247 -5.77345,1.75871 -0.8284,0.12854 -1.64793,0.34392 -2.48521,0.38564 -2.6696,0.13299 -5.65708,-0.0898 -8.04957,-1.45068 -3.99412,-2.27195 -6.65905,-5.02814 -7.81213,-9.56221 -0.49807,-1.95849 -0.16224,-4.0384 -0.24336,-6.0576 0.30983,-1.07675 0.5527,-2.17508 0.92949,-3.23026 0.70289,-1.96839 2.08523,-3.62805 3.33088,-5.26612 1.72813,-2.07923 3.51337,-4.10902 5.41738,-6.03064 2.86928,-2.90294 5.79822,-5.74682 8.63834,-8.67859 3.16548,-3.3262 6.23036,-6.74548 9.2339,-10.21856 0.14358,-0.16977 2.08701,-2.46226 2.35392,-2.79603 0.32204,-0.4027 0.62319,-0.8217 0.93763,-1.23037 0.21165,-0.27508 0.38674,-0.58419 0.64063,-0.82084 0.0901,-0.084 0.29704,0.3294 0.18785,0.31826 -0.0584,0.59927 -0.20497,1.19645 -0.17502,1.7978 0.19432,3.90047 0.88988,6.67678 4.17783,9.73527 1.73381,1.61281 4.09106,2.4528 6.3294,3.2255 2.80878,0.96961 5.43076,-0.47962 7.97843,-1.31486 -0.16138,-0.009 -0.32791,-0.0694 -0.48411,-0.0279 -0.79589,0.21175 -2.42501,1.04925 -3.03432,1.35644 -2.33902,1.1792 -4.63878,2.43598 -6.93788,3.69036 -6.05395,3.30445 -12.01386,6.78199 -18.18376,9.8721 -6.16639,3.02686 -12.28003,6.15937 -18.39621,9.28603 -5.77856,2.98297 -11.49865,6.08134 -17.33595,8.9493 -4.41323,2.15723 -8.37496,4.18948 -13.22315,5.46184 -1.221147,0.32047 -2.494471,0.5434 -3.755791,0.489 -1.735157,-0.0748 -3.424488,-0.58171 -5.136731,-0.87256 -2.557593,-2.16691 -6.250241,-3.46541 -7.672773,-6.50073 -2.919646,-6.22977 -2.027147,-11.62926 1.643505,-16.28863 0.354131,-0.44952 1.194326,-1.32397 1.581304,-1.73533 1.842999,-1.76282 3.66483,-3.54481 5.611005,-5.19652 2.195925,-1.96524 4.449391,-3.86926 6.776945,-5.67728 2.727086,-2.10897 5.391306,-4.29903 8.116526,-6.41066 3.37087,-2.68198 6.71313,-5.41523 9.82369,-8.39872 1.25826,-1.23694 1.72235,-1.6715 2.92414,-2.93618 0.78107,-0.82194 1.49543,-1.70594 2.28271,-2.52193 0.36893,-0.3824 0.3479,-0.34675 0.69912,-0.47585 -0.18238,1.51258 -0.43235,2.78258 -0.0278,4.35906 0.37611,1.46558 0.81402,2.96221 1.62984,4.23651 2.00264,3.12812 3.97442,4.2023 7.3298,5.35822 0.67343,0.232 1.41112,0.19516 2.11668,0.29274 2.31399,-0.072 1.35756,0.0844 4.82268,-1.38998 0.30667,-0.13048 -0.66254,0.10533 -0.97503,0.22117 -0.58836,0.21811 -1.14814,0.50711 -1.71507,0.77607 -1.21125,0.57466 -3.16836,1.57655 -4.33528,2.16764 -6.60628,3.46545 -13.09361,7.14947 -19.51775,10.94138 -10.00653,5.87936 -19.979673,11.81708 -29.883518,17.86794 -4.249535,2.63429 -4.464399,2.74058 -8.397774,5.27111 -0.871362,0.56059 -1.733848,1.13489 -2.603863,1.69757 -0.393309,0.25437 -0.78147,0.51752 -1.18605,0.75355 -0.05089,0.0297 -0.205989,0.0873 -0.172373,0.0389 0.222133,-0.31967 0.507274,-0.5906 0.760916,-0.8859 -12.54301,15.25925 -34.122844,-2.47925 -21.579835,-17.73849 z"
       inkscape:connector-curvature="0"
       inkscape:export-xdpi="96"
       inkscape:export-ydpi="96" />
    <g
       transform="matrix(0.73960786,0,0,0.73960786,213.64011,67.695043)"
       aria-label="Gypsy"
       style="font-style:normal;font-weight:normal;font-size:76.97014618px;line-height:1.25;font-family:sans-serif;letter-spacing:0px;word-spacing:0px;opacity:1;fill:#ffce17;fill-opacity:1;stroke:#4d4d4d;stroke-width:1.02400005;stroke-miterlimit:4;stroke-dasharray:none;stroke-opacity:1"
       id="text825-7-6-1-1"
       inkscape:export-xdpi="96"
       inkscape:export-ydpi="96">
      <path
         id="path859-1-5"
         transform="scale(0.26458333)"
         style="font-style:italic;font-variant:normal;font-weight:800;font-stretch:normal;font-family:'Exo 2';-inkscape-font-specification:'Exo 2 Ultra-Bold Italic';fill:#ffce17;fill-opacity:1;stroke:#4d4d4d;stroke-width:3.87023616;stroke-miterlimit:4;stroke-dasharray:none;stroke-opacity:1"
         d="m -905.04883,-207.88477 c -16.291,0 -30.44834,1.45418 -42.47265,4.36329 -12.02432,2.9091 -22.30257,8.1453 -30.83594,15.70898 -8.53339,7.36974 -15.51499,17.74506 -20.94531,31.12695 -5.23637,13.3819 -9.30967,30.44956 -12.21877,51.20117 -3.491,26.181987 -3.588,47.126762 -0.291,62.835942 3.4909,15.515243 9.6959,26.66716 18.61719,33.4550786 8.92127,6.7879182 20.07318,10.18164065 33.45508,10.18164065 9.11518,0 17.35876,-1.35709827 24.72851,-4.07226565 7.36973,-2.9091078 13.86595,-6.4969809 19.49024,-10.7636716 5.8182,-4.460632 10.86024,-8.922181 15.12695,-13.382813 0.0948,-0.09909 0.17747,-0.190455 0.27148,-0.289062 l 2.05664,24.4355466 h 39.85352 l 16.29101,-115.7832056 h -52.07226 l -8.30078,59.49219 c -1.82642,1.410988 -3.69804,2.890354 -5.66211,4.507812 -3.29698,2.521228 -7.07902,4.654927 -11.3457,6.400391 -4.07277,1.745464 -9.30896,2.619141 -15.70899,2.619141 -7.17581,0 -12.50908,-1.55125 -16,-4.654297 -3.49092,-3.103048 -5.52755,-8.63047 -6.10937,-16.582031 -0.38788,-8.145502 0.48384,-19.588646 2.61718,-34.328126 1.55153,-11.83037 3.49108,-21.62519 5.81836,-29.38281 2.32729,-7.75762 5.23757,-13.86554 8.72852,-18.32617 3.49092,-4.46064 7.85346,-7.56509 13.08984,-9.31055 5.23641,-1.93941 11.63751,-2.9082 19.20117,-2.9082 7.75764,0 14.93338,0.0971 21.52735,0.29101 6.59399,0 13.18728,0.0971 19.78125,0.29102 6.59399,0 13.28436,0.0971 20.07226,0.29101 l 6.40039,-39.27343 c -6.59399,-1.93941 -13.47851,-3.49066 -20.65429,-4.6543 -7.17581,-1.16364 -14.44864,-2.03732 -21.81836,-2.61914 -7.36975,-0.58182 -14.93378,-0.8711 -22.69141,-0.8711 z"
         inkscape:connector-curvature="0"
         sodipodi:nodetypes="sscccccscccccccccccsscccccsccccsss" />
      <path
         id="path861-5-8"
         transform="scale(0.26458333)"
         style="font-style:italic;font-variant:normal;font-weight:800;font-stretch:normal;font-family:'Exo 2';-inkscape-font-specification:'Exo 2 Ultra-Bold Italic';fill:#ffce17;fill-opacity:1;stroke:#4d4d4d;stroke-width:3.87023616;stroke-miterlimit:4;stroke-dasharray:none;stroke-opacity:1"
         d="m -823.83984,-147.66797 20.07422,129.748048 c 0.77574,4.072751 2.71529,7.563549 5.81835,10.4726564 3.29699,2.9091078 7.27122,4.3632812 11.92579,4.3632812 h 20.74218 c -5.27162,6.3089529 -10.63191,11.2626215 -16.08593,14.8359374 -5.62427,3.68487 -11.63709,6.593217 -18.03711,8.726563 -6.20611,2.327286 -12.79941,4.655135 -19.78125,6.982422 l 4.07226,29.382812 c 15.51524,0 29.67258,-2.327851 42.47266,-6.982422 12.80007,-4.654574 24.72663,-12.024468 35.78125,-22.109375 11.05459,-9.890967 21.23772,-22.594133 30.54687,-38.109375 2.71517,-4.460632 5.81765,-10.376354 9.3086,-17.746094 3.68486,-7.563679 7.4669,-16.096524 11.3457,-25.599609 4.07277,-9.503088 7.95186,-19.587177 11.63672,-30.253906 3.68486,-10.666729 6.98152,-21.430349 9.89062,-32.291019 2.90913,-10.86067 5.13989,-21.33501 6.69141,-31.41992 h -56.4375 c -2.52122,16.87283 -5.42955,32.09799 -8.72656,45.67383 -3.10305,13.575834 -6.78801,26.181927 -11.05469,37.818359 -3.33805,9.537294 -7.27262,18.942016 -11.7832,28.21875 h -8.8711 c -3.10296,0 -4.75325,-1.551249 -4.94726,-4.654297 l -6.98047,-107.056642 z"
         inkscape:connector-curvature="0"
         sodipodi:nodetypes="cccscccccsccccsccccccsccc" />
      <path
         id="path863-3-3"
         transform="scale(0.26458333)"
         style="font-style:italic;font-variant:normal;font-weight:800;font-stretch:normal;font-family:'Exo 2';-inkscape-font-specification:'Exo 2 Ultra-Bold Italic';fill:#ffce17;fill-opacity:1;stroke:#4d4d4d;stroke-width:3.87023616;stroke-miterlimit:4;stroke-dasharray:none;stroke-opacity:1"
         d="m -533.65039,-151.1582 c -7.95157,0 -15.70977,1.55125 -23.27344,4.65429 -7.56369,3.10305 -14.54529,7.07922 -20.94531,11.92774 -5.87873,4.59274 -10.96481,9.1846 -15.27734,13.77734 l 0.4414,-26.86914 h -42.18359 l -27.63672,198.402345 h 52.94727 l 4.36328,-26.472656 c 0.96965,-5.624276 1.55012,-10.860472 1.74414,-15.7089846 0.30702,-3.8362405 0.42454,-7.67352526 0.36718,-11.5097656 1.9762,0.3716167 3.97693,0.7255527 6.03321,1.0371093 6.59396,0.96970265 12.89798,1.6472752 18.91015,2.03515628 6.20609,0.58182158 11.63643,0.87304687 16.29102,0.87304687 8.92125,0 17.0658,-1.06587296 24.43555,-3.19921875 7.56366,-1.9394053 14.15891,-5.4302026 19.7832,-10.4726565 5.8182,-5.042453 10.66609,-12.315274 14.54492,-21.818359 4.07274,-9.697026 7.17525,-22.110919 9.30859,-37.238281 2.32729,-18.230408 2.32729,-33.162396 0,-44.798826 -2.13334,-11.63643 -6.59292,-20.26831 -13.38085,-25.89258 -6.59397,-5.81822 -15.41805,-8.72656 -26.47266,-8.72656 z m -22.98242,41.01953 c 3.8788,0 6.69008,1.06587 8.43554,3.19922 1.74547,2.13334 2.61915,6.01244 2.61915,11.636716 0,5.624274 -0.77661,13.768818 -2.32813,24.435546 -1.16364,7.951562 -2.42367,14.546809 -3.78125,19.783204 -1.16364,5.042454 -2.81197,8.919598 -4.94531,11.634765 -2.13334,2.715167 -5.04363,4.654716 -8.72852,5.81836 -3.68486,0.969702 -8.4357,1.455078 -14.2539,1.455078 h -17.68555 l 7.58398,-60.126953 c 2.23955,-2.321406 4.63477,-4.489822 7.19336,-6.492188 4.65457,-3.490928 9.21125,-6.205128 13.67188,-8.144528 4.65459,-2.13335 8.72782,-3.19922 12.21875,-3.19922 z"
         inkscape:connector-curvature="0"
         sodipodi:nodetypes="sscccccccccccsccccccsscsccscsccccs" />
      <path
         inkscape:connector-curvature="0"
         d="m -106.29163,-40.147836 q 2.92487,0 6.388523,0.230911 3.463656,0.23091 6.696402,0.615761 3.232746,0.30788 5.464881,0.846671 l -1.154553,8.235806 q -3.771537,0 -7.466104,0 -3.694569,-0.07697 -7.312159,-0.07697 -2.77093,0 -4.3873,0.07697 -1.53941,0.07697 -2.15517,0.384851 -0.61576,0.30788 -0.7697,1.000612 -0.15394,0.923641 0.69273,1.539403 0.84667,0.615761 3.23275,1.308492 l 8.928536,2.770925 q 3.078806,0.923642 5.08003,2.463045 2.001223,1.539403 2.847895,3.848507 0.923642,2.309105 0.538791,5.464881 -0.615761,4.9260891 -3.001836,7.3891338 -2.386074,2.3860745 -6.465492,3.23274614 -4.002444,0.84667161 -9.621264,0.84667161 -2.69396,0 -5.54185,-0.1539403 -2.8479,-0.0769701 -6.00368,-0.46182087 -3.15577,-0.30788059 -7.00428,-0.92364178 l 1.23152,-8.3127758 q 1.15456,0.07697 3.30972,0.07697 2.15516,0 4.61821,0 2.54001,0 4.77215,0 4.15638,0 6.31155,-0.1539403 2.15516,-0.1539405 3.00183,-0.5387905 0.84668,-0.461821 0.92365,-1.231523 0.15394,-0.692731 -0.23091,-1.077582 -0.30788,-0.38485 -1.3085,-0.769701 -1.00061,-0.384851 -2.77092,-0.923642 l -8.62066,-2.847895 q -3.38668,-1.154553 -5.38791,-2.924866 -1.92425,-1.770313 -2.61698,-4.233358 -0.61576,-2.463045 -0.23091,-5.46488 0.53879,-3.463657 2.3091,-5.695791 1.84728,-2.232134 5.61882,-3.386687 3.77154,-1.154552 10.08309,-1.154552 z"
         style="font-style:italic;font-variant:normal;font-weight:800;font-stretch:normal;font-family:'Exo 2';-inkscape-font-specification:'Exo 2 Ultra-Bold Italic';fill:#ffce17;fill-opacity:1;stroke:#4d4d4d;stroke-width:1.02400005;stroke-miterlimit:4;stroke-dasharray:none;stroke-opacity:1"
         id="path865-5-9" />
      <path
         id="path867-0-5"
         transform="scale(0.26458333)"
         style="font-style:italic;font-variant:normal;font-weight:800;font-stretch:normal;font-family:'Exo 2';-inkscape-font-specification:'Exo 2 Ultra-Bold Italic';fill:#ffce17;fill-opacity:1;stroke:#4d4d4d;stroke-width:3.87023616;stroke-miterlimit:4;stroke-dasharray:none;stroke-opacity:1"
         d="m -315.88086,-147.66797 20.07227,129.748048 c 0.77576,4.072751 2.71531,7.563549 5.81836,10.4726564 3.29698,2.909108 7.27316,4.3632812 11.92773,4.3632812 h 20.74219 c -5.2717,6.3090662 -10.63382,11.2625764 -16.08789,14.8359374 -5.62428,3.68487 -11.63707,6.593217 -18.03711,8.726563 -6.2061,2.327286 -12.79939,4.655135 -19.78125,6.982422 l 4.07226,29.382812 c 15.51525,0 29.67258,-2.327851 42.47266,-6.982422 12.80007,-4.654574 24.72859,-12.024468 35.7832,-22.109375 11.05461,-9.890967 21.23578,-22.5941328 30.54492,-38.109375 2.71517,-4.460632 5.81767,-10.376354 9.3086,-17.746094 3.68487,-7.563679 7.46689,-16.096524 11.3457,-25.599609 4.07275,-9.503088 7.95185,-19.587177 11.63672,-30.253906 3.68487,-10.666729 6.98152,-21.430349 9.89062,-32.291019 2.90911,-10.86067 5.13988,-21.33501 6.69141,-31.41992 h -56.4375 c -2.52123,16.87283 -5.42957,32.09799 -8.72656,45.67383 -3.10305,13.575836 -6.788,26.181927 -11.05469,37.818359 -3.33805,9.537294 -7.27263,18.942016 -11.7832,28.21875 h -8.8711 c -3.10305,0 -4.75137,-1.551249 -4.94531,-4.654297 l -6.98242,-107.056642 z"
         inkscape:connector-curvature="0"
         sodipodi:nodetypes="cccscccccsccccsscccccsccc" />
    </g>
  </g>
</svg>
